<svg width="24" height="20" viewBox="0 0 24 20" fill="none" xmlns="http://www.w3.org/2000/svg">
<path d="M21.7685 6.62011C21.0172 6.62011 20.407 7.22997 20.407 7.97882C20.407 8.72824 21.0172 9.33726 21.7685 9.33726C22.5174 9.33726 23.1269 8.72796 23.1269 7.97882C23.1269 7.22997 22.5171 6.62011 21.7685 6.62011ZM2.23427 6.62011C1.4829 6.62011 0.872773 7.22997 0.872773 7.97882C0.872773 8.72824 1.4829 9.33726 2.23427 9.33726C2.98367 9.33726 3.59352 8.72796 3.59352 7.97882C3.59352 7.22997 2.98367 6.62011 2.23427 6.62011ZM17.7245 4.14885C16.6089 4.14885 15.7041 5.05596 15.7041 6.17241C15.7041 7.28663 16.6089 8.19207 17.7245 8.19207C18.8404 8.19207 19.7481 7.28663 19.7481 6.17241C19.7481 5.05708 18.8404 4.14885 17.7245 4.14885ZM24 16.446H21.6962V12.2057C21.6962 11.4772 21.4822 10.8009 21.1383 10.2112C21.3409 10.152 21.5489 10.1098 21.7685 10.1098C22.9969 10.1098 24 11.113 24 12.3444V16.446ZM6.2752 4.14885C5.15877 4.14885 4.25166 5.05596 4.25166 6.17241C4.25166 7.28663 5.15877 8.19207 6.2752 8.19207C7.38801 8.19207 8.29511 7.28663 8.29511 6.17241C8.29511 5.05708 7.38829 4.14885 6.2752 4.14885ZM2.23427 10.1098C2.45392 10.1098 2.65907 10.1517 2.86226 10.2112C2.51477 10.8009 2.30432 11.4772 2.30432 12.2057V16.446H0V12.3444C0 11.1127 1.00367 10.1098 2.23427 10.1098ZM11.9978 0.108704C10.351 0.108704 9.00851 1.44984 9.00851 3.09827C9.00851 4.74643 10.3496 6.08924 11.9978 6.08924C13.6462 6.08924 14.989 4.74643 14.989 3.09827C14.9904 1.44956 13.6462 0.108704 11.9978 0.108704ZM20.9563 18.0241H17.427V11.5724C17.427 10.6851 17.1928 9.85976 16.8143 9.11983C17.1032 9.03443 17.4069 8.97386 17.7248 8.97386C19.5055 8.97386 20.9563 10.4219 20.9563 12.2057V18.0241ZM6.56938 11.5724V18.0241H3.04452V12.2057C3.04452 10.4236 4.49337 8.97386 6.27688 8.97386C6.59478 8.97386 6.89538 9.03443 7.1837 9.11983C6.80495 9.85976 6.56938 10.6851 6.56938 11.5724ZM7.3093 19.8916H16.6868V11.5724C16.6868 8.9867 14.5826 6.88387 11.9975 6.88387C9.41043 6.88387 7.3093 8.9867 7.3093 11.5724V19.8916Z" fill="#385FC5"/>
</svg>
