<svg width="16" height="18" viewBox="0 0 16 18" fill="none" xmlns="http://www.w3.org/2000/svg">
<path d="M4.89762 3.15113V4.96613V6.86288V12.2014C4.42212 11.91 3.86488 11.739 3.26638 11.739C1.53688 11.739 0.134 13.1415 0.134 14.8699C0.134 16.6001 1.5365 18.0026 3.26638 18.0026C4.99513 18.0026 6.39725 16.6005 6.39762 14.8706V6.43163L14.3664 4.14075V9.49875C13.8909 9.20738 13.3336 9.03638 12.7351 9.03638C11.0049 9.03638 9.60275 10.4385 9.60275 12.1669C9.60275 13.8968 11.0049 15.2996 12.7351 15.2996C14.3641 15.2996 15.7029 14.0528 15.8514 12.4609H15.8664V3.7095V2.36475V-0.00262451L4.89762 3.15113Z" fill="#385FC5"/>
</svg>
