<svg width="24" height="23" viewBox="0 0 24 23" fill="none" xmlns="http://www.w3.org/2000/svg">
<path fill-rule="evenodd" clip-rule="evenodd" d="M1.6 6.4H17.6C18.48 6.4 19.2 7.12 19.2 8C19.2 8.88 18.48 9.6 17.6 9.6H1.6C0.72 9.6 0 8.88 0 8C0 7.12 0.72 6.4 1.6 6.4ZM1.6 0H17.6C18.48 0 19.2 0.72 19.2 1.6C19.2 2.48 18.48 3.2 17.6 3.2H1.6C0.72 3.2 0 2.48 0 1.6C0 0.72 0.72 0 1.6 0ZM1.6 12.8H11.2C12.08 12.8 12.8 13.52 12.8 14.4C12.8 15.28 12.08 16 11.2 16H1.6C0.72 16 0 15.28 0 14.4C0 13.52 0.72 12.8 1.6 12.8ZM16 14.208V20.976C16 21.6 16.672 21.984 17.216 21.664L22.864 18.272C23.376 17.968 23.376 17.216 22.864 16.896L17.216 13.504C16.672 13.2 16 13.584 16 14.208Z" fill="#385FC5"/>
</svg>
